<?xml version="1.0" encoding="UTF-8"?>
<svg id="Layer_2" data-name="Layer 2" xmlns="http://www.w3.org/2000/svg" viewBox="0 0 872.8 872.8">
  <defs>
    <style>
      .cls-1 {
        fill: #0f0f0f;
      }

      .cls-2 {
        fill: #fff;
      }

      .cls-3 {
        fill: #8327ed;
      }

      .cls-4 {
        fill: #ff3183;
      }
    </style>
  </defs>
  <g id="Layer_1-2" data-name="Layer 1">
    <circle class="cls-1" cx="436.4" cy="436.4" r="436.4"/>
    <path class="cls-4" d="M464.05,692.15h-44.79c-163.54,0-296.11-132.57-296.11-296.11h0c19.7,0,35.35-4.77,46.97-14.31,5.39-4.35,12.13-12.96,20.22-25.82,6.01-9.33,12.02-14,18.04-14s14.62,1.66,25.82,4.98c11.2,3.32,22.71,4.98,34.53,4.98,12.85,0,30.9-15.34,54.12-46.03,20.32-28.62,40.54-57.13,60.65-85.54,23.02-30.9,40.33-46.35,51.94-46.35,5.39,0,13.42,3.63,24.11,10.89,10.68,7.26,19.13,11.1,25.35,11.51,8.5,.83,21.56-.41,39.19-3.73,18.66-3.31,29.03-4.98,31.1-4.98,14.51,0,35.97,17.94,64.39,53.81,25.09,33.39,50.18,66.87,75.27,100.47,28.82,36.08,50.59,54.12,65.32,54.12h0c0,163.54-132.57,296.11-296.11,296.11Zm-194.71-334.68c-12.44,0-23.33-1.56-32.66-4.67-11.41-3.73-20.74-5.6-27.99-5.6-1.04,10.16,4.25,15.97,15.86,17.42,10.16,1.24,25.09-1.14,44.79-7.15Zm400.31-40.44c-8.92-11.4-23.12-30.06-42.61-55.99-15.76-22.19-33.08-41.26-51.94-57.23-.21,3.32-1.24,6.22-3.11,8.71-4.35,6.22-12.03,9.95-23.02,11.2-3.11,.21-6.12,.31-9.02,.31-6.22,0-13.58-1.19-22.08-3.58-8.51-2.38-15.86-3.58-22.08-3.58-7.26,0-15.97,.99-26.13,2.95-10.16,1.97-17.84,2.95-23.02,2.95-4.15,0-8.4-.31-12.75-.93-9.33-1.66-14-7.57-14-17.73,0-5.6,1.45-11.82,4.35-18.66-4.35,3.11-8.92,7.15-13.69,12.13-11.41,11.82-23.23,27.27-35.46,46.35-13.48,20.95-33.28,48.73-59.41,83.36,23.22-24.26,44.06-36.29,62.52-36.08,11.61,.21,20.73,6.53,27.37,18.97,4.35,11.62,8.6,23.23,12.75,34.84,4.98,12.44,11.2,18.77,18.66,18.97,13.27,.42,21.25-5.91,23.95-18.97,2.28-12.23,4.56-24.47,6.84-36.7,6.01-13.27,19.7-19.91,41.06-19.91,8.29,0,21.1,5.39,38.41,16.17,17.31,10.78,29.71,16.07,37.17,15.86,4.35-.2,6.53-2.8,6.53-7.78,0-2.49-.83-7.26-2.49-14.31-1.66-7.05-2.49-12.02-2.49-14.93,0-7.26,3.52-10.89,10.58-10.89,7.67,0,18.2,11.66,31.57,34.99,13.38,23.33,24.42,34.99,33.13,34.99,7.05,0,10.58-4.35,10.58-13.06,0-3.73-.73-7.88-2.18-12.44Zm-152.1-118.82c-18.46,3.53-32.97,3.53-43.55,0-4.56-1.45-10.47-4.87-17.73-10.26-6.43-4.77-10.78-7.15-13.06-7.15-7.26,0-10.89,3.11-10.89,9.33,0,5.81,2.28,10.78,6.84,14.93,3.73,3.32,10.16,4.98,19.28,4.98,14.93,0,34.63-3.94,59.1-11.82Z"/>
    <path class="cls-3" d="M454.4,691h-44.79c-163.54,0-296.11-132.57-296.11-296.11h0c19.7,0,35.35-4.77,46.97-14.31,5.39-4.35,12.13-12.96,20.22-25.82,6.01-9.33,12.02-14,18.04-14s14.62,1.66,25.82,4.98c11.2,3.32,22.71,4.98,34.53,4.98,12.85,0,30.9-15.34,54.12-46.03,20.32-28.62,40.54-57.13,60.65-85.54,23.02-30.9,40.33-46.35,51.94-46.35,5.39,0,13.42,3.63,24.11,10.89,10.68,7.26,19.13,11.1,25.35,11.51,8.5,.83,21.56-.41,39.19-3.73,18.66-3.31,29.03-4.98,31.1-4.98,14.51,0,35.97,17.94,64.39,53.81,25.09,33.39,50.18,66.87,75.27,100.47,28.82,36.08,50.59,54.12,65.32,54.12h0c0,163.54-132.57,296.11-296.11,296.11Zm-194.71-334.68c-12.44,0-23.33-1.56-32.66-4.67-11.41-3.73-20.74-5.6-27.99-5.6-1.04,10.16,4.25,15.97,15.86,17.42,10.16,1.24,25.09-1.14,44.79-7.15Zm400.31-40.44c-8.92-11.4-23.12-30.06-42.61-55.99-15.76-22.19-33.08-41.26-51.94-57.23-.21,3.32-1.24,6.22-3.11,8.71-4.35,6.22-12.03,9.95-23.02,11.2-3.11,.21-6.12,.31-9.02,.31-6.22,0-13.58-1.19-22.08-3.58-8.51-2.38-15.86-3.58-22.08-3.58-7.26,0-15.97,.99-26.13,2.95-10.16,1.97-17.84,2.95-23.02,2.95-4.15,0-8.4-.31-12.75-.93-9.33-1.66-14-7.57-14-17.73,0-5.6,1.45-11.82,4.35-18.66-4.35,3.11-8.92,7.15-13.69,12.13-11.41,11.82-23.23,27.27-35.46,46.35-13.48,20.95-33.28,48.73-59.41,83.36,23.22-24.26,44.06-36.29,62.52-36.08,11.61,.21,20.73,6.53,27.37,18.97,4.35,11.62,8.6,23.23,12.75,34.84,4.98,12.44,11.2,18.77,18.66,18.97,13.27,.42,21.25-5.91,23.95-18.97,2.28-12.23,4.56-24.47,6.84-36.7,6.01-13.27,19.7-19.91,41.06-19.91,8.29,0,21.1,5.39,38.41,16.17,17.31,10.78,29.71,16.07,37.17,15.86,4.35-.2,6.53-2.8,6.53-7.78,0-2.49-.83-7.26-2.49-14.31-1.66-7.05-2.49-12.02-2.49-14.93,0-7.26,3.52-10.89,10.58-10.89,7.67,0,18.2,11.66,31.57,34.99,13.38,23.33,24.42,34.99,33.13,34.99,7.05,0,10.58-4.35,10.58-13.06,0-3.73-.73-7.88-2.18-12.44Zm-152.1-118.82c-18.46,3.53-32.97,3.53-43.55,0-4.56-1.45-10.47-4.87-17.73-10.26-6.43-4.77-10.78-7.15-13.06-7.15-7.26,0-10.89,3.11-10.89,9.33,0,5.81,2.28,10.78,6.84,14.93,3.73,3.32,10.16,4.98,19.28,4.98,14.93,0,34.63-3.94,59.1-11.82Z"/>
    <path class="cls-2" d="M458.8,695.5h-44.79c-163.54,0-296.11-132.57-296.11-296.11h0c19.7,0,35.35-4.77,46.97-14.31,5.39-4.35,12.13-12.96,20.22-25.82,6.01-9.33,12.02-14,18.04-14s14.62,1.66,25.82,4.98c11.2,3.32,22.71,4.98,34.53,4.98,12.85,0,30.9-15.34,54.12-46.03,20.32-28.62,40.54-57.13,60.65-85.54,23.02-30.9,40.33-46.35,51.94-46.35,5.39,0,13.42,3.63,24.11,10.89,10.68,7.26,19.13,11.1,25.35,11.51,8.5,.83,21.56-.41,39.19-3.73,18.66-3.31,29.03-4.98,31.1-4.98,14.51,0,35.97,17.94,64.39,53.81,25.09,33.39,50.18,66.87,75.27,100.47,28.82,36.08,50.59,54.12,65.32,54.12h0c0,163.54-132.57,296.11-296.11,296.11Zm-194.71-334.68c-12.44,0-23.33-1.56-32.66-4.67-11.41-3.73-20.74-5.6-27.99-5.6-1.04,10.16,4.25,15.97,15.86,17.42,10.16,1.24,25.09-1.14,44.79-7.15Zm400.31-40.44c-8.92-11.4-23.12-30.06-42.61-55.99-15.76-22.19-33.08-41.26-51.94-57.23-.21,3.32-1.24,6.22-3.11,8.71-4.35,6.22-12.03,9.95-23.02,11.2-3.11,.21-6.12,.31-9.02,.31-6.22,0-13.58-1.19-22.08-3.58-8.51-2.38-15.86-3.58-22.08-3.58-7.26,0-15.97,.99-26.13,2.95-10.16,1.97-17.84,2.95-23.02,2.95-4.15,0-8.4-.31-12.75-.93-9.33-1.66-14-7.57-14-17.73,0-5.6,1.45-11.82,4.35-18.66-4.35,3.11-8.92,7.15-13.69,12.13-11.41,11.82-23.23,27.27-35.46,46.35-13.48,20.95-33.28,48.73-59.41,83.36,23.22-24.26,44.06-36.29,62.52-36.08,11.61,.21,20.73,6.53,27.37,18.97,4.35,11.62,8.6,23.23,12.75,34.84,4.98,12.44,11.2,18.77,18.66,18.97,13.27,.42,21.25-5.91,23.95-18.97,2.28-12.23,4.56-24.47,6.84-36.7,6.01-13.27,19.7-19.91,41.06-19.91,8.29,0,21.1,5.39,38.41,16.17,17.31,10.78,29.71,16.07,37.17,15.86,4.35-.2,6.53-2.8,6.53-7.78,0-2.49-.83-7.26-2.49-14.31-1.66-7.05-2.49-12.02-2.49-14.93,0-7.26,3.52-10.89,10.58-10.89,7.67,0,18.2,11.66,31.57,34.99,13.38,23.33,24.42,34.99,33.13,34.99,7.05,0,10.58-4.35,10.58-13.06,0-3.73-.73-7.88-2.18-12.44Zm-152.1-118.82c-18.46,3.53-32.97,3.53-43.55,0-4.56-1.45-10.47-4.87-17.73-10.26-6.43-4.77-10.78-7.15-13.06-7.15-7.26,0-10.89,3.11-10.89,9.33,0,5.81,2.28,10.78,6.84,14.93,3.73,3.32,10.16,4.98,19.28,4.98,14.93,0,34.63-3.94,59.1-11.82Z"/>
  </g>
</svg>